<?xml version="1.0" standalone="no"?>
<!DOCTYPE svg PUBLIC "-//W3C//DTD SVG 20010904//EN"
 "http://www.w3.org/TR/2001/REC-SVG-20010904/DTD/svg10.dtd">
<svg version="1.0" xmlns="http://www.w3.org/2000/svg"
 width="300.000000pt" height="300.000000pt" viewBox="0 0 300.000000 300.000000"
 preserveAspectRatio="xMidYMid meet">
<metadata>
Created by potrace 1.11, written by Peter Selinger 2001-2013
</metadata>
<g transform="translate(0.000000,300.000000) scale(0.100000,-0.100000)"
fill="#000000" stroke="none">
<path d="M1205 2658 c-9 -32 -12 -69 -4 -74 4 -2 6 -11 3 -19 -4 -8 -1 -28 4
-45 14 -38 4 -38 -30 1 -23 26 -30 29 -48 19 -34 -18 -35 -39 -4 -71 l29 -31
-52 21 c-72 28 -121 33 -132 12 -14 -27 -2 -39 77 -81 42 -22 97 -59 121 -82
42 -40 101 -122 101 -140 0 -4 -14 -15 -31 -24 -25 -12 -30 -21 -26 -40 3 -20
-7 -32 -70 -79 -214 -162 -309 -415 -280 -745 9 -93 12 -107 53 -188 41 -84
110 -159 172 -186 39 -18 42 -22 44 -60 4 -109 4 -246 -1 -246 -3 0 -21 -13
-40 -29 -19 -17 -55 -34 -85 -40 -99 -22 -150 -42 -226 -89 -81 -50 -199 -176
-238 -255 -28 -56 -61 -152 -62 -179 0 -5 540 -8 1201 -8 l1201 0 -5 103 c-11
214 -71 409 -142 463 -70 53 -122 67 -252 70 -68 2 -137 -2 -155 -7 -30 -8
-36 -6 -63 25 -85 96 -210 131 -462 129 l-122 -1 -3 41 c-4 59 8 81 55 102
147 64 316 229 333 324 4 20 9 40 11 44 8 14 17 136 17 242 1 124 -8 200 -35
295 -69 249 -208 343 -514 344 l-120 1 3 39 c7 77 30 153 68 219 22 41 72 87
94 87 16 0 12 67 -6 84 -19 20 -28 20 -62 2 -37 -19 -57 -43 -98 -117 l-35
-64 7 50 c4 28 13 65 20 84 20 49 17 70 -11 83 -22 10 -28 8 -44 -9 -23 -24
-51 -102 -51 -141 -1 -46 -17 -4 -25 63 -11 108 -14 115 -51 115 -14 0 -26 -6
-29 -12z"/>
</g>
</svg>
